# xmcd
#
# Track frame offsets:
#	150
#	19554
#	31968
#	45144
#	63435
#	83531
#	100640
#	123831
#	135469
#	154046
#	179020
#	195430
#	217974
#
# Disc length: 3026 seconds
#
# Revision: 1
# Processed by: cddbd v1.5.1PL2 Copyright (c) Steve Scherf et al.
# Submitted via: EasyCDDAExtractor 9.0.0.1
#
DISCID=940bd00d
DTITLE=Motörhead - Hammersmith Carling Apollo London 16-06-05 Disc 1
DYEAR=2005
DGENRE=Hard Rock
TTITLE0=Doctor Rock
TTITLE1=Stay Clean
TTITLE2=Shoot You In The Back
TTITLE3=Love Me Like A Reptile
TTITLE4=Killers
TTITLE5=Mertropolis
TTITLE6=Love For Sale
TTITLE7=OverThe Top
TTITLE8=No Class 
TTITLE9=I Got Mine
TTITLE10=In The Name Of Tragedy
TTITLE11=Dancing On Your Grave
TTITLE12=Ramones
EXTD=
EXTT0=
EXTT1=
EXTT2=
EXTT3=
EXTT4=
EXTT5=
EXTT6=
EXTT7=
EXTT8=
EXTT9=
EXTT10=
EXTT11=
EXTT12=
PLAYORDER=
